<svg width="559" height="556" viewBox="0 0 559 556" fill="none" xmlns="http://www.w3.org/2000/svg">
<g clip-path="url(#clip0)">
<path d="M57.1047 204.871L35.8633 231.51C53.5096 239.884 71.3722 228.259 78.6945 222.431C102.338 236.966 130.043 240.877 156.173 233.369C182.303 225.861 204.895 207.498 219.351 182.015C233.808 156.533 239.043 125.846 233.993 96.1983C228.942 66.5504 213.984 40.169 192.163 22.4218C170.342 4.67461 143.297 -3.10511 116.53 0.665568C89.7634 4.43624 65.2863 19.474 48.079 42.7192C30.8717 65.9645 22.227 95.6708 23.9037 125.794C25.5804 155.917 37.4526 184.194 57.1047 204.872V204.871Z" fill="#E6E6E6"/>
<path d="M72.5468 98.9575C94.4605 98.7023 116.371 98.264 138.284 97.931C145.589 97.8199 152.895 97.7226 160.2 97.639C166.495 97.5656 166.511 86.6151 160.2 86.6886C138.286 86.9439 116.376 87.3822 94.4629 87.7152C87.1577 87.8262 79.8523 87.9235 72.5468 88.0072C66.2522 88.0805 66.2361 99.0311 72.5468 98.9575V98.9575Z" fill="white"/>
<path d="M72.5469 124.509L161.113 123.482L186.302 123.19C192.596 123.117 192.612 112.166 186.302 112.24L97.7354 113.266L72.5469 113.558C66.2522 113.631 66.2361 124.582 72.5469 124.509V124.509Z" fill="white"/>
<path d="M72.5469 150.059L161.113 149.033L186.302 148.741C192.596 148.668 192.612 137.717 186.302 137.79L97.7354 138.817L72.5469 139.109C66.2522 139.182 66.2361 150.133 72.5469 150.059V150.059Z" fill="white"/>
<path d="M7.71653 254.549C11.9783 254.549 15.4331 250.684 15.4331 245.916C15.4331 241.149 11.9783 237.283 7.71653 237.283C3.45481 237.283 0 241.149 0 245.916C0 250.684 3.45481 254.549 7.71653 254.549Z" fill="#E6E6E6"/>
<path d="M391.219 298L386.905 328.121C386.635 330.008 385.997 331.806 385.038 333.388C384.079 334.969 382.821 336.296 381.353 337.275C379.886 338.253 378.244 338.859 376.544 339.05C374.844 339.241 373.127 339.013 371.515 338.38V338.38C369.911 337.751 368.45 336.738 367.232 335.412C366.015 334.086 365.071 332.478 364.466 330.701C363.861 328.924 363.611 327.021 363.732 325.124C363.853 323.228 364.343 321.384 365.167 319.721L379.202 291.401L433.459 170.16C435.595 166.129 438.863 163.001 442.754 161.265C446.645 159.53 450.94 159.283 454.97 160.565L460.718 162.394L452.169 190.44L391.219 298Z" fill="#A0616A"/>
<path d="M540.949 509.757L553.65 509.009L539.613 456.66L519.558 461.147L540.949 509.757Z" fill="#A0616A"/>
<path d="M413.941 519.479H427.979L435.332 468.625H413.941V519.479Z" fill="#A0616A"/>
<path d="M436.193 89.9061C436.193 101.069 440.129 111.781 447.147 119.716C454.165 127.652 463.697 132.169 473.675 132.287C483.652 132.406 493.268 128.116 500.435 120.349C507.602 112.582 511.74 101.965 511.952 90.8052C511.963 90.5098 511.963 90.2015 511.963 89.9061C511.965 84.3386 510.987 78.825 509.084 73.6805C507.181 68.5359 504.391 63.8612 500.873 59.9234C497.355 55.9856 493.178 52.8619 488.58 50.7306C483.982 48.5994 479.055 47.5024 474.078 47.5024C469.101 47.5024 464.173 48.5994 459.576 50.7306C454.978 52.8619 450.801 55.9856 447.283 59.9234C443.765 63.8612 440.975 68.5359 439.072 73.6805C437.169 78.825 436.191 84.3386 436.193 89.9061Z" fill="#2F2E41"/>
<path d="M490.15 66.788C500.929 66.788 509.667 57.0126 509.667 44.9541C509.667 32.8955 500.929 23.1201 490.15 23.1201C479.372 23.1201 470.634 32.8955 470.634 44.9541C470.634 57.0126 479.372 66.788 490.15 66.788Z" fill="#2F2E41"/>
<path d="M488.114 61.6439C491.881 63.1839 495.98 63.388 499.854 62.2285C503.729 61.0691 507.189 58.6024 509.765 55.1642C512.342 51.7259 513.909 47.4831 514.253 43.0131C514.597 38.5432 513.701 34.0632 511.688 30.1829C513.531 32.4475 514.927 35.1207 515.786 38.0285C516.645 40.9364 516.947 44.0139 516.673 47.061C516.399 50.1081 515.555 53.0566 514.196 55.715C512.837 58.3733 510.993 60.6819 508.784 62.4907C506.575 64.2995 504.051 65.5681 501.375 66.214C498.699 66.8599 495.932 66.8686 493.252 66.2396C490.573 65.6106 488.043 64.358 485.825 62.5631C483.607 60.7683 481.751 58.4713 480.378 55.8216C482.496 58.4365 485.151 60.4349 488.114 61.6439V61.6439Z" fill="#2F2E41"/>
<path d="M471.09 136.431C483.179 136.431 492.979 125.468 492.979 111.943C492.979 98.4184 483.179 87.4546 471.09 87.4546C459.001 87.4546 449.2 98.4184 449.2 111.943C449.2 125.468 459.001 136.431 471.09 136.431Z" fill="#A0616A"/>
<path d="M486.804 120.879C486.804 120.879 488.809 149.297 501.51 155.279L452.044 206.133L436 197.906L447.364 162.01C447.364 162.01 473.434 156.027 462.739 129.853L486.804 120.879Z" fill="#A0616A"/>
<path d="M402.577 473.112L438.674 475.356L455.386 334.762L498.836 474.608L542.286 458.903L499.505 298.865C488.489 254.595 497.757 205.943 512.874 156.027L496.162 150.792L458.06 156.775C454.12 156.782 450.254 157.965 446.86 160.203C443.466 162.44 440.667 165.65 438.753 169.503C429.367 188.303 422.58 206.543 428.113 222.125C405.93 287.078 401.147 375.843 402.577 473.112Z" fill="#2F2E41"/>
<path d="M509.532 310.831L500.249 339.514C499.667 341.311 499.445 343.229 499.598 345.133C499.752 347.036 500.277 348.879 501.136 350.531C501.996 352.183 503.169 353.604 504.573 354.693C505.977 355.782 507.577 356.514 509.261 356.835V356.835C510.936 357.155 512.654 357.062 514.294 356.563C515.933 356.063 517.456 355.169 518.755 353.943C520.054 352.717 521.098 351.188 521.814 349.464C522.53 347.74 522.901 345.862 522.901 343.96V311.579L528 176.112C527.879 171.427 526.377 166.919 523.726 163.29C521.075 159.661 517.426 157.116 513.346 156.051L507.526 154.532L502.847 183.698L509.532 310.831Z" fill="#A0616A"/>
<path d="M545.494 551.323C548.184 551.412 550.821 550.469 552.967 548.651C555.112 546.833 556.638 544.249 557.291 541.328L557.735 539.34C559.861 529.824 559.297 519.804 556.119 510.662L551.645 497.791L538.276 504.522L534.161 536.229C533.922 538.071 534.034 539.949 534.49 541.74C534.945 543.53 535.734 545.192 536.804 546.618C537.874 548.043 539.202 549.199 540.699 550.01C542.197 550.821 543.831 551.269 545.494 551.323V551.323Z" fill="#2F2E41"/>
<path d="M392.444 554.36C393.907 555.356 395.574 555.918 397.286 555.992C398.997 556.065 400.698 555.649 402.225 554.781L427.68 538.741C429.331 537.701 430.652 536.113 431.462 534.197C432.272 532.281 432.53 530.131 432.2 528.044L429.316 509.757H413.273L390.345 537.044C389.32 538.264 388.552 539.724 388.095 541.319C387.639 542.913 387.506 544.602 387.708 546.261C387.909 547.92 388.438 549.508 389.258 550.909C390.077 552.31 391.166 553.489 392.444 554.36V554.36Z" fill="#2F2E41"/>
<path d="M436.537 84.1909C442.473 100.284 457.811 111.74 475.8 111.74C491.207 111.74 504.673 103.341 511.952 90.8053C511.963 90.5099 511.963 90.2016 511.963 89.9062C511.963 79.1612 508.315 68.8172 501.756 60.9669C495.198 53.1165 486.22 48.3458 476.637 47.6197C467.055 46.8935 457.583 50.2662 450.139 57.0556C442.694 63.8449 437.833 73.544 436.537 84.1909V84.1909Z" fill="#2F2E41"/>
<path d="M369.825 209.368C369.816 183.406 362.183 158.167 348.101 137.531C334.019 116.896 314.267 102.008 291.884 95.1563C269.5 88.3049 245.725 89.8698 224.214 99.6103C202.703 109.351 184.648 126.727 172.826 149.068C161.004 171.408 156.07 197.475 158.782 223.258C161.494 249.042 171.703 273.115 187.837 291.775C203.972 310.435 225.139 322.648 248.084 326.536C271.028 330.424 294.479 325.771 314.829 313.294C322.151 319.123 340.014 330.748 357.66 322.374L336.419 295.735C346.978 284.667 355.392 271.289 361.138 256.432C366.885 241.575 369.841 225.556 369.825 209.368Z" fill="#6A5DE0"/>
<path d="M209.749 189.821C231.663 189.566 253.574 189.127 275.487 188.794C282.792 188.683 290.097 188.586 297.403 188.502C303.697 188.429 303.714 177.479 297.403 177.552C275.489 177.807 253.578 178.246 231.666 178.579C224.36 178.69 217.055 178.787 209.749 178.871C203.455 178.944 203.439 189.895 209.749 189.821V189.821Z" fill="white"/>
<path d="M209.749 215.372L298.316 214.345L323.504 214.054C329.799 213.981 329.815 203.03 323.504 203.103L234.938 204.13L209.749 204.422C203.455 204.495 203.439 215.445 209.749 215.372V215.372Z" fill="white"/>
<path d="M209.749 240.923L298.316 239.896L323.504 239.604C329.799 239.531 329.815 228.581 323.504 228.654L234.938 229.681L209.749 229.973C203.455 230.045 203.439 240.996 209.749 240.923Z" fill="white"/>
</g>
<defs>
<clipPath id="clip0">
<rect width="559" height="556" fill="white"/>
</clipPath>
</defs>
</svg>
